<svg xmlns="http://www.w3.org/2000/svg" xmlns:xlink="http://www.w3.org/1999/xlink" width="289pt" height="255pt" viewBox="0.00 0.00 288.93 255.20">
<g id="graph0" class="graph" transform="scale(1 1) rotate(0) translate(4 251.2)">
<title>G</title>
<polygon fill="white" stroke="none" points="-4,4 -4,-251.2 284.93,-251.2 284.93,4 -4,4"/>
<!-- 0 -->
<g id="node1" class="node">
<title>0</title>
<polygon fill="none" stroke="black" points="222.87,-247.2 117.06,-247.2 117.06,-188.8 222.87,-188.8 222.87,-247.2"/>
<text text-anchor="middle" x="169.96" y="-230.6" font-family="Times,serif" font-size="14.00">ID: 0</text>
<text text-anchor="middle" x="169.96" y="-213.8" font-family="Times,serif" font-size="14.00">Margin: .25</text>
<text text-anchor="middle" x="169.96" y="-197" font-family="Times,serif" font-size="14.00">Layout: HORIZ</text>
</g>
<!-- 1 -->
<g id="node2" class="node">
<title>1</title>
<polygon fill="none" stroke="black" points="160.76,-152.8 61.17,-152.8 61.17,-94.4 160.76,-94.4 160.76,-152.8"/>
<text text-anchor="middle" x="110.96" y="-136.2" font-family="Times,serif" font-size="14.00">ID: 1</text>
<text text-anchor="middle" x="110.96" y="-119.4" font-family="Times,serif" font-size="14.00">Margin: .1</text>
<text text-anchor="middle" x="110.96" y="-102.6" font-family="Times,serif" font-size="14.00">Layout: VERT</text>
</g>
<!-- 0&#45;&gt;1 -->
<g id="edge1" class="edge">
<title>0-&gt;1</title>
<path fill="none" stroke="black" d="M151.78,-188.52C146.57,-180.36 140.79,-171.32 135.27,-162.67"/>
<polygon fill="black" stroke="black" points="138.34,-160.96 130,-154.42 132.44,-164.73 138.34,-160.96"/>
</g>
<!-- 4 -->
<g id="node3" class="node">
<title>4</title>
<polygon fill="none" stroke="black" points="280.93,-152.8 179,-152.8 179,-94.4 280.93,-94.4 280.93,-152.8"/>
<text text-anchor="middle" x="229.96" y="-136.2" font-family="Times,serif" font-size="14.00">ID: 4</text>
<text text-anchor="middle" x="229.96" y="-119.4" font-family="Times,serif" font-size="14.00">Margin: .0</text>
<text text-anchor="middle" x="229.96" y="-102.6" font-family="Times,serif" font-size="14.00">Layout: NONE</text>
</g>
<!-- 0&#45;&gt;4 -->
<g id="edge2" class="edge">
<title>0-&gt;4</title>
<path fill="none" stroke="black" d="M188.46,-188.52C193.76,-180.36 199.63,-171.32 205.24,-162.67"/>
<polygon fill="black" stroke="black" points="208.1,-164.7 210.61,-154.41 202.22,-160.89 208.1,-164.7"/>
</g>
<!-- 2 -->
<g id="node4" class="node">
<title>2</title>
<polygon fill="none" stroke="black" points="101.93,-58.4 0,-58.4 0,0 101.93,0 101.93,-58.4"/>
<text text-anchor="middle" x="50.96" y="-41.8" font-family="Times,serif" font-size="14.00">ID: 2</text>
<text text-anchor="middle" x="50.96" y="-25" font-family="Times,serif" font-size="14.00">Margin: .0</text>
<text text-anchor="middle" x="50.96" y="-8.2" font-family="Times,serif" font-size="14.00">Layout: NONE</text>
</g>
<!-- 1&#45;&gt;2 -->
<g id="edge3" class="edge">
<title>1-&gt;2</title>
<path fill="none" stroke="black" d="M92.47,-94.12C87.17,-85.96 81.3,-76.92 75.68,-68.27"/>
<polygon fill="black" stroke="black" points="78.7,-66.49 70.32,-60.01 72.83,-70.3 78.7,-66.49"/>
</g>
<!-- 3 -->
<g id="node5" class="node">
<title>3</title>
<polygon fill="none" stroke="black" points="221.93,-58.4 120,-58.4 120,0 221.93,0 221.93,-58.4"/>
<text text-anchor="middle" x="170.96" y="-41.8" font-family="Times,serif" font-size="14.00">ID: 3</text>
<text text-anchor="middle" x="170.96" y="-25" font-family="Times,serif" font-size="14.00">Margin: .0</text>
<text text-anchor="middle" x="170.96" y="-8.2" font-family="Times,serif" font-size="14.00">Layout: NONE</text>
</g>
<!-- 1&#45;&gt;3 -->
<g id="edge4" class="edge">
<title>1-&gt;3</title>
<path fill="none" stroke="black" d="M129.46,-94.12C134.76,-85.96 140.63,-76.92 146.24,-68.27"/>
<polygon fill="black" stroke="black" points="149.1,-70.3 151.61,-60.01 143.22,-66.49 149.1,-70.3"/>
</g>
</g>
</svg>